<?xml version='1.0' encoding='utf-8'?>
<svg width="95.09mm" height="28.807289mm" viewBox="-17.1162 -5.185312 34.2324 10.370624" version="1.1" xmlns="http://www.w3.org/2000/svg">
  <g transform="scale(1,-1)" stroke-linecap="round">
    <g fill="rgb(0,0,0)" stroke="rgb(0,0,0)" stroke-width="0.0" id="Shapes">
      <path d="M -17.1,-2.281047 L -16.510019,-2.281047 L -16.510019,1.656362 L -15.17231,-2.281047 L -14.620189,-2.281047 L -13.27617,1.590108 L -13.27617,-2.281047 L -12.686189,-2.281047 L -12.686189,2.344147 L -13.509638,2.344147 L -14.617034,-0.873928 Q -14.784248,-1.362949 -14.863122,-1.615347 Q -14.932532,-1.388189 -15.083971,-0.930718 L -16.178747,2.344147 L -17.1,2.344147 L -17.1,-2.281047" />
      <path d="M -11.357945,-0.984352 L -11.92584,-1.060072 Q -11.869051,-1.637432 -11.466791,-2.000254 Q -11.064532,-2.363077 -10.455622,-2.363077 Q -9.780457,-2.363077 -9.33876,-1.941887 Q -8.897064,-1.520698 -8.897064,-0.914943 Q -8.897064,-0.466936 -9.124222,-0.168791 Q -9.35138,0.129354 -9.761527,0.224003 Q -9.446029,0.369132 -9.285126,0.61522 Q -9.124222,0.861308 -9.124222,1.161031 Q -9.124222,1.476529 -9.293013,1.757321 Q -9.461804,2.038114 -9.780457,2.200595 Q -10.099109,2.363077 -10.477706,2.363077 Q -11.026672,2.363077 -11.395804,2.049157 Q -11.764936,1.735237 -11.869051,1.164186 L -11.301155,1.063227 Q -11.238055,1.479683 -11.017207,1.687912 Q -10.796359,1.89614 -10.465086,1.89614 Q -10.130659,1.89614 -9.919276,1.691067 Q -9.707892,1.485993 -9.707892,1.173651 Q -9.707892,0.779279 -9.99815,0.58998 Q -10.288408,0.400682 -10.65123,0.400682 Q -10.685935,0.400682 -10.742724,0.406992 L -10.805824,-0.091494 Q -10.566046,-0.028395 -10.405142,-0.028395 Q -10.01077,-0.028395 -9.755217,-0.28237 Q -9.499664,-0.536346 -9.499664,-0.927563 Q -9.499664,-1.33771 -9.775724,-1.615347 Q -10.051785,-1.892985 -10.452467,-1.892985 Q -10.790049,-1.892985 -11.025095,-1.680024 Q -11.26014,-1.467064 -11.357945,-0.984352" />
      <path d="M -8.0957,-0.990662 L -7.713948,-1.372414 L -6.720131,-0.378597 L -5.729468,-1.369259 L -5.344561,-0.984352 L -6.335224,0.00631 L -5.350871,0.993817 L -5.729468,1.375569 L -6.716976,0.388062 L -7.707638,1.378724 L -8.092545,0.993817 L -7.101883,0.003155 L -8.0957,-0.990662" />
      <path d="M 17.1,3.169112 A 2.0,2.0 0.0 0,1 15.1,5.169112 L 10.897066,5.169112 L 10.897066,2.584556 L 10.159606,3.315468 L 9.422146,2.584556 L 8.684686,3.315468 L 7.947226,2.584556 L 7.209766,3.315468 L 6.472306,2.584556 L 5.734846,3.315468 L 4.997386,2.584556 L 4.259926,3.315468 L 3.522466,2.584556 L 2.785006,3.315468 L 2.047546,2.584556 L 2.047546,-0.0 L 2.047546,-2.584556 L 2.785006,-3.315468 L 3.522466,-2.584556 L 4.259926,-3.315468 L 4.997386,-2.584556 L 5.734846,-3.315468 L 6.472306,-2.584556 L 7.209766,-3.315468 L 7.947226,-2.584556 L 8.684686,-3.315468 L 9.422146,-2.584556 L 10.159606,-3.315468 L 10.897066,-2.584556 L 10.897066,-5.169112 L 15.1,-5.169112 A 2.0,2.0 0.0 0,1 17.1,-3.169112 L 17.1,3.169112 M 12.612332,-0.558264 L 10.841756,-0.558264 L 10.841756,0.558264 L 12.612332,0.558264 L 13.074813,1.020745 L 13.074813,2.79132 L 14.191341,2.79132 L 14.191341,1.020745 L 14.653822,0.558264 L 16.424397,0.558264 L 16.424397,-0.558264 L 14.653822,-0.558264 L 14.191341,-1.020745 L 14.191341,-2.79132 L 13.074813,-2.79132 L 13.074813,-1.020745 L 12.612332,-0.558264" />
      <path d="M -1.577521,-1.735237 L -3.845948,-1.735237 Q -3.751299,-1.580643 -3.60617,-1.427626 Q -3.461041,-1.27461 -2.949935,-0.845533 Q -2.33787,-0.328117 -2.074429,-0.03155 Q -1.810989,0.265018 -1.69741,0.533191 Q -1.583831,0.801364 -1.583831,1.079002 Q -1.583831,1.624812 -1.971892,1.993945 Q -2.359954,2.363077 -3.025654,2.363077 Q -3.685044,2.363077 -4.076261,2.020762 Q -4.467478,1.678447 -4.527423,1.025367 L -3.943752,0.965422 Q -3.940597,1.400809 -3.694509,1.646897 Q -3.448421,1.892985 -3.038274,1.892985 Q -2.650212,1.892985 -2.408857,1.661095 Q -2.167501,1.429204 -2.167501,1.091622 Q -2.167501,0.769814 -2.432519,0.408569 Q -2.697537,0.047325 -3.451576,-0.571051 Q -3.937442,-0.968577 -4.194573,-1.271455 Q -4.451703,-1.574333 -4.568437,-1.886675 Q -4.641002,-2.075974 -4.634692,-2.281047 L -1.577521,-2.281047 L -1.577521,-1.735237" />
      <path d="M -0.511139,-1.880365 Q -0.129387,-2.359922 0.539468,-2.359922 Q 1.047419,-2.359922 1.380269,-2.087016 Q 1.713119,-1.814111 1.880333,-1.314047 Q 2.047546,-0.813984 2.047546,0.0 C 2.047546,0.458523 2.012842,0.822923 1.943432,1.093199 C 1.802641,1.632765 1.56891,2.014386 1.192548,2.213215 C 1.005353,2.313123 0.787659,2.363077 0.539468,2.363077 C 0.202937,2.363077 -0.076278,2.272634 -0.298178,2.091749 C -0.520078,1.910863 -0.687292,1.653733 -0.799819,1.320357 C -0.912347,0.986981 -0.96861,0.546862 -0.96861,-0.0 C -0.96861,-0.86867 -0.81612,-1.495458 -0.511139,-1.880365 M -0.091527,1.561713 Q 0.141941,1.892985 0.533158,1.892985 Q 0.930685,1.892985 1.19728,1.517543 Q 1.463876,1.142101 1.463876,0.0 Q 1.463876,-1.135791 1.19728,-1.514388 Q 0.930685,-1.892985 0.539468,-1.892985 Q 0.148251,-1.892985 -0.118344,-1.515966 Q -0.38494,-1.138946 -0.38494,0.0 Q -0.38494,1.138946 -0.091527,1.561713" />
    </g>
  </g>
</svg>