<?xml version='1.0' encoding='utf-8'?>
<svg width="99.728981mm" height="29.588494mm" viewBox="-17.886233 -5.5162 35.902433 10.651858" version="1.1" xmlns="http://www.w3.org/2000/svg">
  <g transform="scale(1,-1)" stroke-linecap="round">
    <g fill="rgb(0,0,0)" stroke="rgb(0,0,0)" stroke-width="0.0" id="Shapes">
      <path d="M 13.371347,-3.750305 L 14.913473,-3.750305 L 14.913473,-3.520117 L 13.668063,-3.520117 L 13.786483,-3.383069 L 14.881539,-2.029883 L 14.881539,-1.799695 L 13.484445,-1.799695 L 13.484445,-2.029883 L 14.572848,-2.029883 Q 14.477047,-2.128345 14.370602,-2.261401 L 13.371347,-3.510803 L 13.371347,-3.750305" />
      <path d="M 12.266976,-3.750305 L 12.531759,-3.750305 L 13.295504,-1.799695 L 13.032052,-1.799695 L 12.505148,-3.216748 Q 12.445272,-3.376416 12.400033,-3.536084 Q 12.358786,-3.387061 12.297579,-3.216748 L 11.790634,-1.799695 L 11.511215,-1.799695 L 12.266976,-3.750305" />
      <path d="M -14.719362,-1.490889 L -14.109945,-1.490889 L -14.109945,-1.291424 L -14.719362,-1.291424 L -14.719362,-1.490889" />
      <path d="M -13.311533,1.178467 A 1.1284670946202047,1.1284670946202047 0.0 0,1 -15.568467,1.178467 A 1.1284670946202047,1.1284670946202047 0.0 0,1 -13.311533,1.178467 M -13.87505,1.328553 L -13.79226,1.328553 A 0.15008612358448722,0.15008612358448722 180.0 0,0 -13.79226,1.028381 L -13.87505,1.028381 A 0.584545955013266,0.584545955013266 0.0 0,0 -13.875062,1.028335 A 0.1737839325715115,0.1737839325715115 -30.00000000000003 0,1 -14.027513,0.764283 A 0.584545955013266,0.584545955013266 0.0 0,0 -14.027547,0.764249 L -13.986152,0.692551 A 0.15008612358448722,0.15008612358448722 119.99999999999999 0,0 -14.246108,0.542465 L -14.287504,0.614163 A 0.584545955013266,0.584545955013266 0.0 0,0 -14.287549,0.614151 A 0.1737839325715115,0.1737839325715115 -90.00000000000001 0,1 -14.592451,0.614151 A 0.584545955013266,0.584545955013266 0.0 0,0 -14.592496,0.614163 L -14.633892,0.542465 A 0.15008612358448722,0.15008612358448722 59.99999999999997 0,0 -14.893848,0.692551 L -14.852453,0.764249 A 0.584545955013266,0.584545955013266 0.0 0,0 -14.852487,0.764283 A 0.1737839325715115,0.1737839325715115 -149.99999999999997 0,1 -15.004938,1.028335 A 0.584545955013266,0.584545955013266 0.0 0,0 -15.00495,1.028381 L -15.08774,1.028381 A 0.15008612358448722,0.15008612358448722 0.0 0,0 -15.08774,1.328553 L -15.00495,1.328553 A 0.584545955013266,0.584545955013266 0.0 0,0 -15.004938,1.328599 A 0.1737839325715115,0.1737839325715115 150.0 0,1 -14.852487,1.592652 A 0.584545955013266,0.584545955013266 0.0 0,0 -14.852453,1.592685 L -14.893848,1.664383 A 0.15008612358448722,0.15008612358448722 -60.00000000000001 0,0 -14.633892,1.81447 L -14.592496,1.742771 A 0.584545955013266,0.584545955013266 0.0 0,0 -14.592451,1.742783 A 0.1737839325715115,0.1737839325715115 90.0 0,1 -14.287549,1.742783 A 0.584545955013266,0.584545955013266 0.0 0,0 -14.287504,1.742771 L -14.246108,1.81447 A 0.15008612358448722,0.15008612358448722 -120.00000000000001 0,0 -13.986152,1.664383 L -14.027547,1.592685 A 0.584545955013266,0.584545955013266 0.0 0,0 -14.027513,1.592652 A 0.1737839325715115,0.1737839325715115 29.999999999999996 0,1 -13.875062,1.328599 A 0.584545955013266,0.584545955013266 0.0 0,0 -13.87505,1.328553" />
      <circle cx="-14.44" cy="1.178467" r="0.31597078649365734" />
      <path d="M -12.903235,-1.785128 L -13.695586,-1.785128 Q -13.662526,-1.731129 -13.611833,-1.677682 Q -13.56114,-1.624234 -13.382613,-1.474359 C -13.240085,-1.353872 -13.138149,-1.259098 -13.076803,-1.190038 C -13.015457,-1.120978 -12.97156,-1.055225 -12.945112,-0.992777 C -12.918663,-0.930329 -12.905439,-0.866779 -12.905439,-0.802128 C -12.905439,-0.675028 -12.950622,-0.5685 -13.040987,-0.482542 C -13.131353,-0.396585 -13.254044,-0.353606 -13.409062,-0.353606 C -13.713861,-0.352458 -13.908001,-0.517853 -13.933622,-0.820862 L -13.729749,-0.8418 Q -13.728647,-0.689722 -13.64269,-0.603764 Q -13.556732,-0.517807 -13.41347,-0.517807 Q -13.277921,-0.517807 -13.193617,-0.598805 Q -13.109313,-0.679804 -13.109313,-0.79772 Q -13.109313,-0.910126 -13.201882,-1.036307 Q -13.294452,-1.162488 -13.557834,-1.378483 Q -13.727545,-1.517338 -13.81736,-1.623132 Q -13.907174,-1.728925 -13.947949,-1.838025 Q -13.973295,-1.904146 -13.971091,-1.975778 L -12.903235,-1.975778 L -12.903235,-1.785128" />
      <path d="M -12.530753,-1.835821 C -12.441857,-1.947492 -12.319533,-2.003328 -12.163781,-2.003328 C -11.926869,-2.004993 -11.773643,-1.869238 -11.695423,-1.638009 C -11.656485,-1.521562 -11.637016,-1.368565 -11.637016,-1.179018 C -11.637016,-1.018858 -11.649138,-0.891575 -11.673382,-0.797169 C -11.72256,-0.608701 -11.804201,-0.475402 -11.935663,-0.405952 C -12.001049,-0.371055 -12.077088,-0.353606 -12.163781,-0.353606 C -12.281329,-0.353606 -12.378858,-0.385197 -12.456366,-0.44838 C -12.533875,-0.511562 -12.592282,-0.601377 -12.631587,-0.717823 C -12.670893,-0.83427 -12.690545,-0.988002 -12.690545,-1.179018 C -12.690545,-1.482441 -12.637281,-1.701375 -12.530753,-1.835821 M -12.384184,-0.633519 Q -12.302635,-0.517807 -12.165985,-0.517807 Q -12.02713,-0.517807 -11.93401,-0.648947 Q -11.840889,-0.780087 -11.840889,-1.179018 Q -11.840889,-1.575745 -11.93401,-1.707987 Q -12.02713,-1.840229 -12.163781,-1.840229 Q -12.300431,-1.840229 -12.393551,-1.708538 Q -12.486672,-1.576847 -12.486672,-1.179018 Q -12.486672,-0.781189 -12.384184,-0.633519" />
      <path d="M -17.870033,-1.975778 L -17.656241,-1.975778 L -17.656241,-1.214283 L -16.816503,-1.214283 L -16.816503,-1.975778 L -16.602712,-1.975778 L -16.602712,-0.360218 L -16.816503,-0.360218 L -16.816503,-1.023633 L -17.656241,-1.023633 L -17.656241,-0.360218 L -17.870033,-0.360218 L -17.870033,-1.975778" />
      <path d="M -16.24676,-1.975778 L -15.663792,-1.975778 C -15.468551,-1.975227 -15.317758,-1.939044 -15.211413,-1.867229 C -15.10609,-1.794989 -15.010191,-1.675902 -14.954092,-1.485379 C -14.925439,-1.390606 -14.911113,-1.281873 -14.911113,-1.159182 C -14.911113,-1.015185 -14.932235,-0.887167 -14.974479,-0.775128 C -15.016723,-0.66309 -15.080457,-0.571071 -15.165679,-0.499073 Q -15.263759,-0.415319 -15.402613,-0.383361 Q -15.501795,-0.360218 -15.69024,-0.360218 L -16.24676,-0.360218 L -16.24676,-1.975778 M -16.032968,-1.785128 L -16.032968,-0.550867 L -15.693546,-0.550867 Q -15.502897,-0.550867 -15.41694,-0.583928 C -15.337594,-0.614785 -15.270187,-0.675579 -15.214719,-0.766312 C -15.159251,-0.857045 -15.131517,-0.9869 -15.131517,-1.155876 C -15.130598,-1.400019 -15.191944,-1.570005 -15.292411,-1.67162 C -15.367739,-1.743045 -15.47165,-1.785702 -15.688036,-1.785128 L -16.032968,-1.785128" />
      <path d="M -8.965815,5.5 L -8.965815,0.05 L -6.543593,1.563889 L 3.767092,1.563889 L 6.189315,3.986111 L -6.543593,3.986111 L -8.965815,5.5" />
      <path d="M 5.267092,1.563889 L 18.0,1.563889 L 18.0,3.986111 L 7.689315,3.986111 L 5.267092,1.563889" />
      <path d="M 4.45389,-0.957446 L 6.364584,-0.957446 Q 6.000008,-1.372583 5.676681,-1.977991 Q 5.353353,-2.583398 5.18038,-3.235376 Q 5.007406,-3.887354 4.999423,-4.347729 L 5.491732,-4.347729 Q 5.531649,-3.764941 5.67535,-3.275293 Q 5.874935,-2.580737 6.240841,-1.923437 Q 6.606747,-1.266138 6.979305,-0.869629 L 6.979305,-0.49707 L 4.45389,-0.49707 L 4.45389,-0.957446" />
      <path d="M 7.838851,-4.009766 C 8.053516,-4.279427 8.348902,-4.414258 8.725008,-4.414258 C 9.010637,-4.414258 9.247034,-4.337528 9.4342,-4.18407 C 9.621367,-4.030611 9.761963,-3.813285 9.85599,-3.532092 C 9.950017,-3.250899 9.99703,-2.881445 9.99703,-2.42373 C 9.99703,-2.036979 9.967757,-1.729618 9.909213,-1.501648 C 9.790459,-1.046539 9.593314,-0.724653 9.275863,-0.556946 C 9.117969,-0.472677 8.934351,-0.430542 8.725008,-0.430542 C 8.441154,-0.430542 8.205644,-0.506828 8.018478,-0.659399 C 7.831311,-0.811971 7.690271,-1.028853 7.595358,-1.310046 C 7.500444,-1.591239 7.452987,-1.962467 7.452987,-2.42373 C 7.452987,-3.156429 7.581608,-3.685107 7.838851,-4.009766 M 8.192782,-1.10647 Q 8.389706,-0.827051 8.719686,-0.827051 Q 9.054989,-0.827051 9.279855,-1.143726 Q 9.50472,-1.4604 9.50472,-2.42373 Q 9.50472,-3.381738 9.279855,-3.701074 Q 9.054989,-4.02041 8.725008,-4.02041 Q 8.395028,-4.02041 8.170162,-3.702405 Q 7.945297,-3.384399 7.945297,-2.42373 Q 7.945297,-1.463062 8.192782,-1.10647" />
      <path d="M -5.376334,-3.283276 L -5.879288,-3.325854 Q -5.831388,-3.818164 -5.494755,-4.116211 Q -5.158121,-4.414258 -4.625895,-4.414258 Q -3.976578,-4.414258 -3.601359,-3.940576 Q -3.292667,-3.554712 -3.292667,-3.025146 Q -3.292667,-2.46897 -3.643937,-2.115039 Q -3.995206,-1.761108 -4.506144,-1.761108 Q -4.892008,-1.761108 -5.243278,-2.005933 L -5.033048,-0.957446 L -3.476286,-0.957446 L -3.476286,-0.499731 L -5.416251,-0.499731 L -5.794132,-2.503564 L -5.344401,-2.562109 Q -5.237955,-2.394458 -5.051676,-2.289343 Q -4.865397,-2.184229 -4.633878,-2.184229 Q -4.26132,-2.184229 -4.031132,-2.421069 Q -3.800944,-2.65791 -3.800944,-3.067725 Q -3.800944,-3.498828 -4.040446,-3.759619 Q -4.279948,-4.02041 -4.625895,-4.02041 Q -4.913297,-4.02041 -5.116874,-3.835461 Q -5.320451,-3.650513 -5.376334,-3.283276" />
      <path d="M -2.590128,-4.347729 L -2.318693,-4.347729 Q -2.326676,-4.589893 -2.398527,-4.718958 Q -2.470377,-4.848022 -2.622062,-4.914551 L -2.489005,-5.119458 Q -2.257487,-5.018335 -2.151041,-4.833386 Q -2.044596,-4.648438 -2.044596,-4.347729 L -2.044596,-3.802197 L -2.590128,-3.802197 L -2.590128,-4.347729" />
      <path d="M -0.948209,-4.009766 C -0.733545,-4.279427 -0.438159,-4.414258 -0.062052,-4.414258 C 0.223576,-4.414258 0.459973,-4.337528 0.64714,-4.18407 C 0.834306,-4.030611 0.974903,-3.813285 1.068929,-3.532092 C 1.162956,-3.250899 1.209969,-2.881445 1.209969,-2.42373 C 1.209969,-2.036979 1.180697,-1.729618 1.122152,-1.501648 C 1.003399,-1.046539 0.806253,-0.724653 0.488802,-0.556946 C 0.330909,-0.472677 0.14729,-0.430542 -0.062052,-0.430542 C -0.345906,-0.430542 -0.581417,-0.506828 -0.768583,-0.659399 C -0.955749,-0.811971 -1.096789,-1.028853 -1.191703,-1.310046 C -1.286617,-1.591239 -1.334074,-1.962467 -1.334074,-2.42373 C -1.334074,-3.156429 -1.205452,-3.685107 -0.948209,-4.009766 M -0.594279,-1.10647 Q -0.397355,-0.827051 -0.067374,-0.827051 Q 0.267928,-0.827051 0.492794,-1.143726 Q 0.71766,-1.4604 0.71766,-2.42373 Q 0.71766,-3.381738 0.492794,-3.701074 Q 0.267928,-4.02041 -0.062052,-4.02041 Q -0.392033,-4.02041 -0.616898,-3.702405 Q -0.841764,-3.384399 -0.841764,-2.42373 Q -0.841764,-1.463062 -0.594279,-1.10647" />
      <path d="M 1.510677,-4.347729 L 2.090804,-4.347729 L 2.83326,-3.232715 L 2.987606,-3.469556 L 3.567733,-4.347729 L 4.155843,-4.347729 L 3.104696,-2.852173 L 4.081332,-1.521606 L 3.509188,-1.521606 L 3.032845,-2.189551 Q 2.934383,-2.325269 2.817294,-2.500903 Q 2.742782,-2.373169 2.62037,-2.184229 L 2.186605,-1.521606 L 1.58785,-1.521606 L 2.543197,-2.878784 L 1.510677,-4.347729" />
    </g>
  </g>
</svg>