<?xml version='1.0' encoding='utf-8'?>
<svg width="95.49804mm" height="27.865418mm" viewBox="-14.881332 -5.064535 30.845867 9.00053" version="1.1" xmlns="http://www.w3.org/2000/svg">
  <g transform="scale(1,-1)" stroke-linecap="round">
    <g fill="rgb(0,0,0)" stroke="rgb(0,0,0)" stroke-width="0.0" id="Shapes">
      <path d="M 3.226184,-3.121289 L 2.896594,-3.165234 Q 2.929553,-3.500317 3.163013,-3.710889 Q 3.396472,-3.92146 3.749866,-3.92146 Q 4.141711,-3.92146 4.398059,-3.677014 Q 4.654407,-3.432568 4.654407,-3.081006 Q 4.654407,-2.820996 4.522571,-2.647961 Q 4.390735,-2.474927 4.152698,-2.419995 C 4.396457,-2.310552 4.522952,-2.105244 4.522571,-1.876172 C 4.522571,-1.754102 4.489917,-1.638745 4.424609,-1.530103 C 4.359302,-1.42146 4.265002,-1.335706 4.141711,-1.272839 C 4.01842,-1.209973 3.883533,-1.17854 3.737048,-1.17854 C 3.524646,-1.17854 3.347034,-1.23927 3.204211,-1.36073 C 3.061389,-1.48219 2.969836,-1.653394 2.929553,-1.874341 L 3.259143,-1.932935 C 3.30511,-1.610669 3.490886,-1.449536 3.744373,-1.449536 C 3.873767,-1.449536 3.979358,-1.489209 4.061145,-1.568555 C 4.142932,-1.6479 4.183826,-1.747998 4.183826,-1.868848 C 4.183826,-2.021436 4.127673,-2.134351 4.015369,-2.207593 C 3.903064,-2.280835 3.776721,-2.317456 3.63634,-2.317456 C 3.622913,-2.317456 3.605212,-2.316235 3.58324,-2.313794 L 3.546619,-2.603101 Q 3.685779,-2.566479 3.779163,-2.566479 Q 4.008044,-2.566479 4.15636,-2.713879 Q 4.304675,-2.861279 4.304675,-3.08833 Q 4.304675,-3.326367 4.144458,-3.4875 Q 3.984241,-3.648633 3.751697,-3.648633 Q 3.555774,-3.648633 3.41936,-3.525037 Q 3.282947,-3.40144 3.226184,-3.121289" />
      <path d="M 5.119495,-3.124951 L 5.341052,-3.346509 L 5.917834,-2.769727 L 6.492786,-3.344678 L 6.716174,-3.121289 L 6.141223,-2.546338 L 6.712512,-1.973218 L 6.492786,-1.75166 L 5.919666,-2.32478 L 5.344714,-1.749829 L 5.121326,-1.973218 L 5.696277,-2.548169 L 5.119495,-3.124951" />
      <path d="M -10.183144,-2.191965 L -9.277211,-2.191965 L -9.277211,-1.895448 L -10.183144,-1.895448 L -10.183144,-2.191965" />
      <path d="M -9.022469,1.727531 A 1.6775311010269316,1.6775311010269316 0.0 0,1 -12.377531,1.727531 A 1.6775311010269316,1.6775311010269316 0.0 0,1 -9.022469,1.727531 M -9.86017,1.950643 L -9.737097,1.950643 A 0.22311199999999998,0.22311199999999998 180.0 0,0 -9.737097,1.504419 L -9.86017,1.504419 A 0.8689611103319506,0.8689611103319506 0.0 0,0 -9.860188,1.504352 A 0.25833978955814746,0.25833978955814746 -30.00000000000003 0,1 -10.086815,1.111822 A 0.8689611103319506,0.8689611103319506 0.0 0,0 -10.086865,1.111773 L -10.025328,1.005189 A 0.2231118615319453,0.2231118615319453 119.99999999999999 0,0 -10.411769,0.782077 L -10.473305,0.888661 A 0.8689611103319506,0.8689611103319506 0.0 0,0 -10.473373,0.888643 A 0.25833978955814746,0.25833978955814746 -90.00000000000001 0,1 -10.926627,0.888643 A 0.8689611103319506,0.8689611103319506 0.0 0,0 -10.926695,0.888661 L -10.988231,0.782077 A 0.2231118615319453,0.2231118615319453 59.99999999999997 0,0 -11.374672,1.005189 L -11.313135,1.111773 A 0.8689611103319506,0.8689611103319506 0.0 0,0 -11.313185,1.111822 A 0.25833978955814746,0.25833978955814746 -149.99999999999997 0,1 -11.539812,1.504352 A 0.8689611103319506,0.8689611103319506 0.0 0,0 -11.53983,1.504419 L -11.662903,1.504419 A 0.22311199999999998,0.22311199999999998 0.0 0,0 -11.662903,1.950643 L -11.53983,1.950643 A 0.8689611103319506,0.8689611103319506 0.0 0,0 -11.539812,1.95071 A 0.25833978955814746,0.25833978955814746 150.0 0,1 -11.313185,2.34324 A 0.8689611103319506,0.8689611103319506 0.0 0,0 -11.313135,2.343289 L -11.374672,2.449874 A 0.2231116364365819,0.2231116364365819 -60.00000000000001 0,0 -10.988231,2.672985 L -10.926695,2.566401 A 0.8689611103319506,0.8689611103319506 0.0 0,0 -10.926627,2.566419 A 0.25833978955814746,0.25833978955814746 90.0 0,1 -10.473373,2.566419 A 0.8689611103319506,0.8689611103319506 0.0 0,0 -10.473305,2.566401 L -10.411769,2.672985 A 0.2231116364365819,0.2231116364365819 -120.00000000000001 0,0 -10.025328,2.449874 L -10.086865,2.343289 A 0.8689611103319506,0.8689611103319506 0.0 0,0 -10.086815,2.34324 A 0.25833978955814746,0.25833978955814746 29.999999999999996 0,1 -9.860188,1.95071 A 0.8689611103319506,0.8689611103319506 0.0 0,0 -9.86017,1.950643" />
      <path d="M -7.483367,-2.629368 L -8.661243,-2.629368 Q -8.612096,-2.549095 -8.536739,-2.469642 Q -8.461381,-2.390189 -8.19599,-2.167392 Q -7.878176,-1.898724 -7.741386,-1.744732 Q -7.604595,-1.59074 -7.545619,-1.451492 Q -7.486643,-1.312244 -7.486643,-1.168081 Q -7.486643,-0.88467 -7.688144,-0.692999 Q -7.889644,-0.501328 -8.235307,-0.501328 Q -8.577694,-0.501328 -8.780832,-0.679074 Q -8.983971,-0.85682 -9.015097,-1.195931 L -8.712027,-1.227057 Q -8.710389,-1.000983 -8.582608,-0.873203 Q -8.454828,-0.745422 -8.24186,-0.745422 Q -8.04036,-0.745422 -7.915036,-0.865831 Q -7.789713,-0.986239 -7.789713,-1.161528 Q -7.789713,-1.328626 -7.927323,-1.516201 Q -8.064933,-1.703777 -8.456466,-2.024867 Q -8.708751,-2.231282 -8.842265,-2.38855 Q -8.97578,-2.545819 -9.036394,-2.708002 Q -9.074073,-2.806295 -9.070796,-2.912779 L -7.483367,-2.912779 L -7.483367,-2.629368" />
      <path d="M -6.929651,-2.704726 C -6.797501,-2.870731 -6.61566,-2.953734 -6.384125,-2.953734 C -6.031943,-2.956209 -5.804164,-2.754401 -5.687884,-2.410666 C -5.630001,-2.237562 -5.601059,-2.010123 -5.601059,-1.72835 C -5.601059,-1.490263 -5.619079,-1.301049 -5.65512,-1.160709 C -5.728226,-0.88054 -5.84959,-0.682385 -6.045015,-0.579143 C -6.142216,-0.527266 -6.255253,-0.501328 -6.384125,-0.501328 C -6.558868,-0.501328 -6.70385,-0.54829 -6.819071,-0.642214 C -6.934292,-0.736139 -7.021118,-0.869653 -7.079547,-1.042758 C -7.137977,-1.215862 -7.167192,-1.444393 -7.167192,-1.72835 C -7.167192,-2.179405 -7.088011,-2.504864 -6.929651,-2.704726 M -6.711768,-0.917434 Q -6.59054,-0.745422 -6.387402,-0.745422 Q -6.180987,-0.745422 -6.042558,-0.940369 Q -5.904129,-1.135317 -5.904129,-1.72835 Q -5.904129,-2.318107 -6.042558,-2.514693 Q -6.180987,-2.711279 -6.384125,-2.711279 Q -6.587264,-2.711279 -6.725693,-2.515512 Q -6.864122,-2.319745 -6.864122,-1.72835 Q -6.864122,-1.136955 -6.711768,-0.917434" />
      <path d="M -14.866797,-2.912779 L -14.548984,-2.912779 L -14.548984,-1.780773 L -13.300665,-1.780773 L -13.300665,-2.912779 L -12.982851,-2.912779 L -12.982851,-0.511157 L -13.300665,-0.511157 L -13.300665,-1.497362 L -14.548984,-1.497362 L -14.548984,-0.511157 L -14.866797,-0.511157 L -14.866797,-2.912779" />
      <path d="M -12.453708,-2.912779 L -11.587093,-2.912779 C -11.296856,-2.91196 -11.072694,-2.858172 -10.914606,-2.751415 C -10.758037,-2.644026 -10.615478,-2.466997 -10.532083,-2.183774 C -10.48949,-2.042887 -10.468193,-1.88125 -10.468193,-1.698862 C -10.468193,-1.484802 -10.499592,-1.294497 -10.56239,-1.127945 C -10.625188,-0.961393 -10.719932,-0.824602 -10.84662,-0.717572 Q -10.992421,-0.593068 -11.198836,-0.54556 Q -11.346275,-0.511157 -11.62641,-0.511157 L -12.453708,-0.511157 L -12.453708,-2.912779 M -12.135895,-2.629368 L -12.135895,-0.794568 L -11.631325,-0.794568 Q -11.347914,-0.794568 -11.220133,-0.843715 C -11.102182,-0.889585 -11.001977,-0.979959 -10.919521,-1.114839 C -10.837064,-1.249719 -10.795836,-1.442755 -10.795836,-1.693948 C -10.79447,-2.05688 -10.885664,-2.309575 -11.035015,-2.460632 C -11.08853,-2.514147 -11.160338,-2.555648 -11.25044,-2.585136 C -11.340542,-2.614624 -11.464773,-2.629368 -11.623134,-2.629368 L -12.135895,-2.629368" />
      <path d="M -5.05,5.05 L -5.05,0.05 L -2.827778,1.438889 L 4.7,1.438889 L 6.922222,3.661111 L -2.827778,3.661111 L -5.05,5.05" />
      <path d="M 6.2,1.438889 L 15.95,1.438889 L 15.95,3.661111 L 8.422222,3.661111 L 6.2,1.438889" />
      <path d="M 7.516345,-3.141431 L 7.170276,-3.170728 Q 7.203235,-3.509473 7.434863,-3.714551 Q 7.666492,-3.919629 8.032703,-3.919629 Q 8.47948,-3.919629 8.737659,-3.593701 Q 8.950061,-3.328198 8.950061,-2.963818 Q 8.950061,-2.581128 8.708362,-2.337598 Q 8.466663,-2.094067 8.1151,-2.094067 Q 7.849597,-2.094067 7.607898,-2.262524 L 7.752551,-1.541089 L 8.823718,-1.541089 L 8.823718,-1.226147 L 7.488879,-1.226147 L 7.22887,-2.604932 L 7.538318,-2.645215 Q 7.61156,-2.529858 7.739734,-2.457532 Q 7.867908,-2.385205 8.027209,-2.385205 Q 8.283557,-2.385205 8.441943,-2.548169 Q 8.60033,-2.711133 8.60033,-2.993115 Q 8.60033,-3.289746 8.435535,-3.469189 Q 8.27074,-3.648633 8.032703,-3.648633 Q 7.834949,-3.648633 7.694873,-3.521375 Q 7.554797,-3.394116 7.516345,-3.141431" />
      <path d="M 9.52135,-3.641309 C 9.669055,-3.826855 9.872302,-3.919629 10.131091,-3.919629 C 10.52473,-3.922395 10.779323,-3.696831 10.90929,-3.312634 C 10.973987,-3.119153 11.006335,-2.864941 11.006335,-2.55 C 11.006335,-2.283887 10.986194,-2.0724 10.945911,-1.91554 C 10.8642,-1.602391 10.728549,-1.38091 10.51012,-1.265515 C 10.401477,-1.207532 10.275134,-1.17854 10.131091,-1.17854 C 9.935779,-1.17854 9.77373,-1.23103 9.644946,-1.336011 C 9.516162,-1.440991 9.419116,-1.590222 9.353809,-1.783704 C 9.288501,-1.977185 9.255847,-2.232617 9.255847,-2.55 C 9.255847,-3.05415 9.344348,-3.41792 9.52135,-3.641309 M 9.76488,-1.643628 Q 9.900378,-1.451367 10.127429,-1.451367 Q 10.358142,-1.451367 10.512866,-1.669263 Q 10.66759,-1.887158 10.66759,-2.55 Q 10.66759,-3.20918 10.512866,-3.428906 Q 10.358142,-3.648633 10.131091,-3.648633 Q 9.904041,-3.648633 9.749316,-3.429822 Q 9.594592,-3.211011 9.594592,-2.55 Q 9.594592,-1.888989 9.76488,-1.643628" />
      <path d="M -0.106335,-3.873853 L 0.236072,-3.873853 L 0.236072,-1.588696 L 1.012439,-3.873853 L 1.332874,-3.873853 L 2.112903,-1.627148 L 2.112903,-3.873853 L 2.45531,-3.873853 L 2.45531,-1.189526 L 1.977405,-1.189526 L 1.334705,-3.057202 Q 1.237659,-3.341016 1.191882,-3.4875 Q 1.151599,-3.355664 1.063708,-3.090161 L 0.428333,-1.189526 L -0.106335,-1.189526 L -0.106335,-3.873853" />
    </g>
  </g>
</svg>