<?xml version='1.0' encoding='utf-8'?>
<svg width="98.261554mm" height="30.27848mm" viewBox="-15.773947 -5.064535 31.738482 9.779949" version="1.1" xmlns="http://www.w3.org/2000/svg">
  <g transform="scale(1,-1)" stroke-linecap="round">
    <g fill="rgb(0,0,0)" stroke="rgb(0,0,0)" stroke-width="0.0" id="Shapes">
      <path d="M 12.955249,-3.444775 L 14.370044,-3.444775 L 14.370044,-3.233594 L 13.227466,-3.233594 L 13.336108,-3.107861 L 14.340747,-1.866406 L 14.340747,-1.655225 L 13.059009,-1.655225 L 13.059009,-1.866406 L 14.057544,-1.866406 Q 13.969653,-1.956738 13.871997,-2.078809 L 12.955249,-3.225049 L 12.955249,-3.444775" />
      <path d="M 11.942066,-3.444775 L 12.184985,-3.444775 L 12.885669,-1.655225 L 12.64397,-1.655225 L 12.160571,-2.955273 Q 12.10564,-3.101758 12.064136,-3.248242 Q 12.026294,-3.111523 11.970142,-2.955273 L 11.505054,-1.655225 L 11.248706,-1.655225 L 11.942066,-3.444775" />
      <path d="M -12.419434,-1.976221 L -11.773402,-1.976221 L -11.773402,-1.764771 L -12.419434,-1.764771 L -12.419434,-1.976221" />
      <path d="M -10.417473,1.645027 A 1.5950270367607713,1.5950270367607713 0.0 0,1 -13.607527,1.645027 A 1.5950270367607713,1.5950270367607713 0.0 0,1 -10.417473,1.645027 M -11.213974,1.857166 L -11.096954,1.857166 A 0.21213900000000008,0.21213900000000008 180.0 0,0 -11.096954,1.432888 L -11.213974,1.432888 A 0.8262240050420795,0.8262240050420795 0.0 0,0 -11.213991,1.432824 A 0.24563416366115878,0.24563416366115878 -30.00000000000003 0,1 -11.429473,1.0596 A 0.8262240050420795,0.8262240050420795 0.0 0,0 -11.42952,1.059553 L -11.37101,0.958211 A 0.21213877211980858,0.21213877211980858 119.99999999999999 0,0 -11.738445,0.746072 L -11.796955,0.847414 A 0.8262240050420795,0.8262240050420795 0.0 0,0 -11.797019,0.847397 A 0.24563416366115878,0.24563416366115878 -90.00000000000001 0,1 -12.227981,0.847397 A 0.8262240050420795,0.8262240050420795 0.0 0,0 -12.228045,0.847414 L -12.286555,0.746072 A 0.21213877211980858,0.21213877211980858 59.99999999999997 0,0 -12.65399,0.958211 L -12.59548,1.059553 A 0.8262240050420795,0.8262240050420795 0.0 0,0 -12.595527,1.0596 A 0.24563416366115878,0.24563416366115878 -149.99999999999997 0,1 -12.811009,1.432824 A 0.8262240050420795,0.8262240050420795 0.0 0,0 -12.811026,1.432888 L -12.928046,1.432888 A 0.21213900000000008,0.21213900000000008 0.0 0,0 -12.928046,1.857166 L -12.811026,1.857166 A 0.8262240050420795,0.8262240050420795 0.0 0,0 -12.811009,1.85723 A 0.24563416366115878,0.24563416366115878 150.0 0,1 -12.595527,2.230454 A 0.8262240050420795,0.8262240050420795 0.0 0,0 -12.59548,2.230501 L -12.65399,2.331843 A 0.21213877211980858,0.21213877211980858 -60.00000000000001 0,0 -12.286555,2.543982 L -12.228045,2.44264 A 0.8262240050420795,0.8262240050420795 0.0 0,0 -12.227981,2.442657 A 0.24563416366115878,0.24563416366115878 90.0 0,1 -11.797019,2.442657 A 0.8262240050420795,0.8262240050420795 0.0 0,0 -11.796955,2.44264 L -11.738445,2.543982 A 0.21213877211980858,0.21213877211980858 -120.00000000000001 0,0 -11.37101,2.331843 L -11.42952,2.230501 A 0.8262240050420795,0.8262240050420795 0.0 0,0 -11.429473,2.230454 A 0.24563416366115878,0.24563416366115878 29.999999999999996 0,1 -11.213991,1.85723 A 0.8262240050420795,0.8262240050420795 0.0 0,0 -11.213974,1.857166" />
      <circle cx="-12.0125" cy="1.645027" r="0.44660757029301595" />
      <path d="M -10.494187,-2.288139 L -11.334146,-2.288139 Q -11.299099,-2.230896 -11.245361,-2.174236 Q -11.191622,-2.117577 -11.002368,-1.958698 C -10.851277,-1.830971 -10.743215,-1.730503 -10.678184,-1.657293 C -10.613152,-1.584084 -10.566617,-1.51438 -10.53858,-1.44818 C -10.510542,-1.38198 -10.496523,-1.314612 -10.496523,-1.246076 C -10.496523,-1.111339 -10.544421,-0.99841 -10.640216,-0.907288 C -10.736011,-0.816166 -10.866074,-0.770605 -11.030406,-0.770605 C -11.353519,-0.769388 -11.559323,-0.94472 -11.586485,-1.265936 L -11.370361,-1.288132 Q -11.369193,-1.126916 -11.278071,-1.035794 Q -11.186949,-0.944672 -11.035079,-0.944672 Q -10.891386,-0.944672 -10.802016,-1.030537 Q -10.712646,-1.116402 -10.712646,-1.241403 Q -10.712646,-1.360562 -10.810778,-1.494325 Q -10.90891,-1.628088 -11.188117,-1.857061 Q -11.368025,-2.004259 -11.463236,-2.116409 Q -11.558447,-2.228559 -11.601672,-2.344214 Q -11.628541,-2.414308 -11.626204,-2.490243 L -10.494187,-2.490243 L -10.494187,-2.288139" />
      <path d="M -10.099324,-2.341878 C -10.005087,-2.460259 -9.875413,-2.519449 -9.710303,-2.519449 C -9.459157,-2.521214 -9.296724,-2.377302 -9.213804,-2.13218 C -9.172526,-2.008737 -9.151888,-1.846547 -9.151888,-1.645611 C -9.151888,-1.475828 -9.164738,-1.340897 -9.190439,-1.240819 C -9.242572,-1.041026 -9.329118,-0.899719 -9.468479,-0.826096 C -9.537794,-0.789102 -9.618402,-0.770605 -9.710303,-0.770605 C -9.834914,-0.770605 -9.938303,-0.804094 -10.020469,-0.871073 C -10.102634,-0.938052 -10.164551,-1.033263 -10.206218,-1.156706 C -10.247885,-1.280149 -10.268718,-1.443117 -10.268718,-1.645611 C -10.268718,-1.967265 -10.212253,-2.199353 -10.099324,-2.341878 M -9.943949,-1.067336 Q -9.8575,-0.944672 -9.712639,-0.944672 Q -9.565442,-0.944672 -9.466726,-1.083691 Q -9.368011,-1.222711 -9.368011,-1.645611 Q -9.368011,-2.066175 -9.466726,-2.206363 Q -9.565442,-2.346551 -9.710303,-2.346551 Q -9.855164,-2.346551 -9.953879,-2.206947 Q -10.052595,-2.067343 -10.052595,-1.645611 Q -10.052595,-1.223879 -9.943949,-1.067336" />
      <path d="M -15.759412,-2.490243 L -15.532775,-2.490243 L -15.532775,-1.682995 L -14.642581,-1.682995 L -14.642581,-2.490243 L -14.415944,-2.490243 L -14.415944,-0.777614 L -14.642581,-0.777614 L -14.642581,-1.48089 L -15.532775,-1.48089 L -15.532775,-0.777614 L -15.759412,-0.777614 L -15.759412,-2.490243" />
      <path d="M -14.038605,-2.490243 L -13.42061,-2.490243 C -13.213638,-2.489659 -13.053785,-2.451302 -12.94105,-2.375172 C -12.829399,-2.298592 -12.727738,-2.17235 -12.668268,-1.97038 C -12.637894,-1.869912 -12.622707,-1.754646 -12.622707,-1.624583 C -12.622707,-1.471934 -12.645098,-1.336224 -12.68988,-1.217454 C -12.734663,-1.098684 -12.802225,-1.001136 -12.892569,-0.924812 Q -12.996541,-0.836026 -13.143739,-0.802147 Q -13.24888,-0.777614 -13.448647,-0.777614 L -14.038605,-0.777614 L -14.038605,-2.490243 M -13.811968,-2.288139 L -13.811968,-0.979719 L -13.452152,-0.979719 Q -13.250048,-0.979719 -13.158926,-1.014765 C -13.074813,-1.047476 -13.003356,-1.111924 -12.944555,-1.208108 C -12.885754,-1.304293 -12.856353,-1.441949 -12.856353,-1.621078 C -12.85538,-1.879891 -12.920412,-2.06009 -13.026915,-2.167811 C -13.065078,-2.205973 -13.116285,-2.235569 -13.180538,-2.256597 C -13.244791,-2.277625 -13.333382,-2.288139 -13.446311,-2.288139 L -13.811968,-2.288139" />
      <path d="M -6.28584,5.05 L -6.28584,0.05 L -4.063618,1.438889 L 4.08208,1.438889 L 6.304302,3.661111 L -4.063618,3.661111 L -6.28584,5.05" />
      <path d="M 5.58208,1.438889 L 15.95,1.438889 L 15.95,3.661111 L 7.804302,3.661111 L 5.58208,1.438889" />
      <path d="M 4.774097,-0.88252 L 6.527026,-0.88252 Q 6.192554,-1.263379 5.895923,-1.818799 Q 5.599292,-2.374219 5.4406,-2.972363 Q 5.281909,-3.570508 5.274585,-3.992871 L 5.726245,-3.992871 Q 5.762866,-3.458203 5.894702,-3.008984 Q 6.077808,-2.371777 6.413501,-1.76875 Q 6.749194,-1.165723 7.090991,-0.801953 L 7.090991,-0.460156 L 4.774097,-0.460156 L 4.774097,-0.88252" />
      <path d="M 7.879565,-3.682812 C 8.076505,-3.930208 8.347502,-4.053906 8.692554,-4.053906 C 8.954598,-4.053906 9.171476,-3.983512 9.343188,-3.842725 C 9.514901,-3.701937 9.643888,-3.502555 9.730151,-3.24458 C 9.816414,-2.986605 9.859546,-2.647656 9.859546,-2.227734 C 9.859546,-1.872917 9.83269,-1.590934 9.778979,-1.381787 C 9.670032,-0.964256 9.489164,-0.668947 9.197925,-0.515088 C 9.053068,-0.437777 8.884611,-0.399121 8.692554,-0.399121 C 8.432137,-0.399121 8.216072,-0.469108 8.04436,-0.609082 C 7.872648,-0.749056 7.743253,-0.948031 7.656177,-1.206006 C 7.5691,-1.463981 7.525561,-1.804557 7.525561,-2.227734 C 7.525561,-2.899935 7.643563,-3.384961 7.879565,-3.682812 M 8.204272,-1.019238 Q 8.384936,-0.762891 8.687671,-0.762891 Q 8.995288,-0.762891 9.201587,-1.053418 Q 9.407886,-1.343945 9.407886,-2.227734 Q 9.407886,-3.106641 9.201587,-3.399609 Q 8.995288,-3.692578 8.692554,-3.692578 Q 8.389819,-3.692578 8.18352,-3.40083 Q 7.977222,-3.109082 7.977222,-2.227734 Q 7.977222,-1.346387 8.204272,-1.019238" />
      <path d="M -4.244458,-3.016309 L -4.705884,-3.055371 Q -4.661939,-3.507031 -4.353101,-3.780469 Q -4.044263,-4.053906 -3.555982,-4.053906 Q -2.960278,-4.053906 -2.61604,-3.619336 Q -2.332837,-3.265332 -2.332837,-2.779492 Q -2.332837,-2.269238 -2.655103,-1.944531 Q -2.977368,-1.619824 -3.446118,-1.619824 Q -3.800122,-1.619824 -4.122388,-1.844434 L -3.929517,-0.88252 L -2.501294,-0.88252 L -2.501294,-0.462598 L -4.281079,-0.462598 L -4.627759,-2.300977 L -4.215161,-2.354687 Q -4.117505,-2.200879 -3.946607,-2.104443 Q -3.775708,-2.008008 -3.563306,-2.008008 Q -3.221509,-2.008008 -3.010327,-2.225293 Q -2.799146,-2.442578 -2.799146,-2.818555 Q -2.799146,-3.214062 -3.018872,-3.45332 Q -3.238599,-3.692578 -3.555982,-3.692578 Q -3.819653,-3.692578 -4.006421,-3.5229 Q -4.193189,-3.353223 -4.244458,-3.016309" />
      <path d="M -1.688306,-3.992871 L -1.439282,-3.992871 Q -1.446607,-4.215039 -1.512525,-4.333447 Q -1.578442,-4.451855 -1.717603,-4.512891 L -1.595532,-4.700879 Q -1.38313,-4.608105 -1.285474,-4.438428 Q -1.187817,-4.26875 -1.187817,-3.992871 L -1.187817,-3.492383 L -1.688306,-3.492383 L -1.688306,-3.992871" />
      <path d="M -0.181958,-3.682812 C 0.014982,-3.930208 0.285978,-4.053906 0.63103,-4.053906 C 0.893074,-4.053906 1.109953,-3.983512 1.281665,-3.842725 C 1.453377,-3.701937 1.582365,-3.502555 1.668628,-3.24458 C 1.754891,-2.986605 1.798022,-2.647656 1.798022,-2.227734 C 1.798022,-1.872917 1.771167,-1.590934 1.717456,-1.381787 C 1.608508,-0.964256 1.427641,-0.668947 1.136401,-0.515088 C 0.991544,-0.437777 0.823087,-0.399121 0.63103,-0.399121 C 0.370614,-0.399121 0.154549,-0.469108 -0.017163,-0.609082 C -0.188875,-0.749056 -0.31827,-0.948031 -0.405347,-1.206006 C -0.492424,-1.463981 -0.535962,-1.804557 -0.535962,-2.227734 C -0.535962,-2.899935 -0.417961,-3.384961 -0.181958,-3.682812 M 0.142749,-1.019238 Q 0.323413,-0.762891 0.626147,-0.762891 Q 0.933765,-0.762891 1.140063,-1.053418 Q 1.346362,-1.343945 1.346362,-2.227734 Q 1.346362,-3.106641 1.140063,-3.399609 Q 0.933765,-3.692578 0.63103,-3.692578 Q 0.328296,-3.692578 0.121997,-3.40083 Q -0.084302,-3.109082 -0.084302,-2.227734 Q -0.084302,-1.346387 0.142749,-1.019238" />
      <path d="M 2.073901,-3.992871 L 2.606128,-3.992871 L 3.28728,-2.969922 L 3.428882,-3.187207 L 3.961108,-3.992871 L 4.500659,-3.992871 L 3.536304,-2.620801 L 4.4323,-1.400098 L 3.907397,-1.400098 L 3.470386,-2.012891 Q 3.380054,-2.137402 3.272632,-2.298535 Q 3.204272,-2.181348 3.091968,-2.008008 L 2.694018,-1.400098 L 2.144702,-1.400098 L 3.021167,-2.645215 L 2.073901,-3.992871" />
    </g>
  </g>
</svg>