<?xml version='1.0' encoding='utf-8'?>
<svg width="98.85161mm" height="29.280752mm" viewBox="-15.964535 -5.064535 31.92907 9.457683" version="1.1" xmlns="http://www.w3.org/2000/svg">
  <g transform="scale(1,-1)" stroke-linecap="round">
    <g fill="rgb(0,0,0)" stroke="rgb(0,0,0)" stroke-width="0.0" id="Shapes">
      <path d="M -7.39624,-4.315137 L -6.939697,-4.315137 L -6.939697,-1.268262 L -5.904541,-4.315137 L -5.477295,-4.315137 L -4.437256,-1.319531 L -4.437256,-4.315137 L -3.980713,-4.315137 L -3.980713,-0.736035 L -4.61792,-0.736035 L -5.474854,-3.22627 Q -5.604248,-3.604687 -5.665283,-3.8 Q -5.718994,-3.624219 -5.836182,-3.270215 L -6.68335,-0.736035 L -7.39624,-0.736035 L -7.39624,-4.315137" />
      <path d="M -2.952881,-3.311719 L -3.392334,-3.370312 Q -3.348389,-3.81709 -3.037109,-4.097852 Q -2.72583,-4.378613 -2.254639,-4.378613 Q -1.732178,-4.378613 -1.390381,-4.052686 Q -1.048584,-3.726758 -1.048584,-3.258008 Q -1.048584,-2.911328 -1.224365,-2.680615 Q -1.400146,-2.449902 -1.717529,-2.37666 Q -1.473389,-2.264355 -1.348877,-2.073926 Q -1.224365,-1.883496 -1.224365,-1.651562 Q -1.224365,-1.407422 -1.35498,-1.190137 Q -1.485596,-0.972852 -1.732178,-0.847119 Q -1.97876,-0.721387 -2.271729,-0.721387 Q -2.696533,-0.721387 -2.982178,-0.964307 Q -3.267822,-1.207227 -3.348389,-1.649121 L -2.908936,-1.727246 Q -2.860107,-1.40498 -2.689209,-1.243848 Q -2.518311,-1.082715 -2.261963,-1.082715 Q -2.003174,-1.082715 -1.8396,-1.241406 Q -1.676025,-1.400098 -1.676025,-1.641797 Q -1.676025,-1.946973 -1.900635,-2.093457 Q -2.125244,-2.239941 -2.406006,-2.239941 Q -2.432861,-2.239941 -2.476807,-2.235059 L -2.525635,-2.620801 Q -2.340088,-2.571973 -2.215576,-2.571973 Q -1.9104,-2.571973 -1.712646,-2.768506 Q -1.514893,-2.965039 -1.514893,-3.267773 Q -1.514893,-3.585156 -1.728516,-3.8 Q -1.942139,-4.014844 -2.252197,-4.014844 Q -2.513428,-4.014844 -2.695312,-3.850049 Q -2.877197,-3.685254 -2.952881,-3.311719" />
      <path d="M -0.428467,-3.316602 L -0.133057,-3.612012 L 0.635986,-2.842969 L 1.402588,-3.60957 L 1.700439,-3.311719 L 0.933838,-2.545117 L 1.695557,-1.780957 L 1.402588,-1.485547 L 0.638428,-2.249707 L -0.128174,-1.483105 L -0.426025,-1.780957 L 0.340576,-2.547559 L -0.428467,-3.316602" />
      <path d="M 3.94458,1.438889 L 15.95,1.438889 L 15.95,3.661111 L 6.166802,3.661111 L 3.94458,1.438889" />
      <circle cx="-13.45" cy="2.55" r="0.7000000000000001" />
      <path d="M -10.95,2.55 A 2.5,2.5 0.0 0,1 -15.95,2.55 A 2.5,2.5 0.0 0,1 -10.95,2.55 M -12.198414,2.8825 L -12.015,2.8825 A 0.3325,0.3325 180.0 0,0 -12.015,2.2175 L -12.198414,2.2175 A 1.295,1.295 0.0 0,0 -12.19844,2.217399 A 0.385,0.385 -30.00000000000003 0,1 -12.536179,1.632418 A 1.295,1.295 0.0 0,0 -12.536253,1.632344 L -12.444547,1.473504 A 0.3325,0.3325 119.99999999999999 0,0 -13.020453,1.141004 L -13.11216,1.299844 A 1.295,1.295 0.0 0,0 -13.112261,1.299817 A 0.385,0.385 -90.00000000000001 0,1 -13.787739,1.299817 A 1.295,1.295 0.0 0,0 -13.78784,1.299844 L -13.879547,1.141004 A 0.3325,0.3325 59.99999999999997 0,0 -14.455453,1.473504 L -14.363747,1.632344 A 1.295,1.295 0.0 0,0 -14.363821,1.632418 A 0.385,0.385 -149.99999999999997 0,1 -14.70156,2.217399 A 1.295,1.295 0.0 0,0 -14.701586,2.2175 L -14.885,2.2175 A 0.3325,0.3325 0.0 0,0 -14.885,2.8825 L -14.701586,2.8825 A 1.295,1.295 0.0 0,0 -14.70156,2.882601 A 0.385,0.385 150.0 0,1 -14.363821,3.467582 A 1.295,1.295 0.0 0,0 -14.363747,3.467656 L -14.455453,3.626496 A 0.3325,0.3325 -60.00000000000001 0,0 -13.879547,3.958996 L -13.78784,3.800156 A 1.295,1.295 0.0 0,0 -13.787739,3.800183 A 0.385,0.385 90.0 0,1 -13.112261,3.800183 A 1.295,1.295 0.0 0,0 -13.11216,3.800156 L -13.020453,3.958996 A 0.3325,0.3325 -120.00000000000001 0,0 -12.444547,3.626496 L -12.536253,3.467656 A 1.295,1.295 0.0 0,0 -12.536179,3.467582 A 0.385,0.385 29.999999999999996 0,1 -12.19844,2.882601 A 1.295,1.295 0.0 0,0 -12.198414,2.8825" />
      <path d="M -9.56084,5.05 L -9.56084,0.05 L -7.338618,1.438889 L 2.44458,1.438889 L 4.666802,3.661111 L -7.338618,3.661111 L -9.56084,5.05" />
      <path d="M 2.335205,-1.204785 L 4.088135,-1.204785 Q 3.753662,-1.585645 3.457031,-2.141064 Q 3.1604,-2.696484 3.001709,-3.294629 Q 2.843018,-3.892773 2.835693,-4.315137 L 3.287354,-4.315137 Q 3.323975,-3.780469 3.455811,-3.33125 Q 3.638916,-2.694043 3.974609,-2.091016 Q 4.310303,-1.487988 4.6521,-1.124219 L 4.6521,-0.782422 L 2.335205,-0.782422 L 2.335205,-1.204785" />
      <path d="M 7.39624,-3.892773 L 5.640869,-3.892773 Q 5.714111,-3.773145 5.826416,-3.654736 Q 5.938721,-3.536328 6.334229,-3.204297 Q 6.807861,-2.803906 7.011719,-2.574414 Q 7.215576,-2.344922 7.303467,-2.137402 Q 7.391357,-1.929883 7.391357,-1.715039 Q 7.391357,-1.292676 7.091064,-1.007031 Q 6.790771,-0.721387 6.275635,-0.721387 Q 5.765381,-0.721387 5.462646,-0.986279 Q 5.159912,-1.251172 5.113525,-1.756543 L 5.565186,-1.80293 Q 5.567627,-1.466016 5.758057,-1.275586 Q 5.948486,-1.085156 6.265869,-1.085156 Q 6.566162,-1.085156 6.75293,-1.2646 Q 6.939697,-1.444043 6.939697,-1.705273 Q 6.939697,-1.954297 6.734619,-2.233838 Q 6.529541,-2.513379 5.946045,-2.991895 Q 5.570068,-3.299512 5.371094,-3.533887 Q 5.172119,-3.768262 5.081787,-4.009961 Q 5.025635,-4.156445 5.030518,-4.315137 L 7.39624,-4.315137 L 7.39624,-3.892773" />
    </g>
  </g>
</svg>