<?xml version='1.0' encoding='utf-8'?>
<svg width="97.164986mm" height="23.127192mm" viewBox="-17.528555 -4.462338 34.979395 8.325789" version="1.1" xmlns="http://www.w3.org/2000/svg">
  <g transform="scale(1,-1)" stroke-linecap="round">
    <g fill="rgb(0,0,0)" stroke="rgb(0,0,0)" stroke-width="0.0" id="Shapes">
      <path d="M 8.309795,-2.177554 L 7.978842,-2.205572 Q 8.010362,-2.52952 8.231873,-2.725641 Q 8.453383,-2.921761 8.803598,-2.921761 Q 9.23086,-2.921761 9.477762,-2.61007 Q 9.680886,-2.356164 9.680886,-2.0077 Q 9.680886,-1.641726 9.449744,-1.408833 Q 9.218603,-1.17594 8.882396,-1.17594 Q 8.628491,-1.17594 8.397349,-1.337039 L 8.535684,-0.647116 L 9.560062,-0.647116 L 9.560062,-0.345931 L 8.283529,-0.345931 L 8.034877,-1.66449 L 8.330808,-1.703014 Q 8.400851,-1.592696 8.523426,-1.523528 Q 8.646002,-1.454361 8.798345,-1.454361 Q 9.043495,-1.454361 9.194963,-1.610207 Q 9.346431,-1.766052 9.346431,-2.035717 Q 9.346431,-2.319391 9.188834,-2.490997 Q 9.031238,-2.662602 8.803598,-2.662602 Q 8.614482,-2.662602 8.480525,-2.540902 Q 8.346568,-2.419203 8.309795,-2.177554" />
      <path d="M 10.847101,-2.877984 L 11.228835,-2.877984 L 11.717385,-2.144284 L 11.818947,-2.30013 L 12.200681,-2.877984 L 12.587668,-2.877984 L 11.895994,-1.893881 L 12.538638,-1.018344 L 12.162157,-1.018344 L 11.848715,-1.457863 Q 11.783925,-1.547168 11.706878,-1.662739 Q 11.657848,-1.578687 11.577299,-1.454361 L 11.291874,-1.018344 L 10.897882,-1.018344 L 11.526518,-1.911391 L 10.847101,-2.877984" />
      <path d="M -15.294967,-3.795733 L -14.936493,-3.795733 L -14.936493,-0.648888 L -15.320725,-0.648888 L -15.320725,-1.777974 Q -15.421613,-1.638448 -15.582605,-1.551513 Q -15.743596,-1.464578 -15.949665,-1.464578 Q -16.230863,-1.464578 -16.458398,-1.61269 Q -16.685932,-1.760802 -16.7997,-2.03878 Q -16.913467,-2.316759 -16.913467,-2.658061 Q -16.913467,-3.007948 -16.787894,-3.277341 Q -16.66232,-3.546733 -16.433713,-3.696992 Q -16.205105,-3.84725 -15.932493,-3.84725 Q -15.511768,-3.84725 -15.294967,-3.508095 L -15.294967,-3.795733 M -16.516355,-2.658061 Q -16.516355,-2.205138 -16.343557,-1.994776 Q -16.17076,-1.784414 -15.913174,-1.784414 Q -15.649148,-1.784414 -15.468837,-2.003362 Q -15.288527,-2.222311 -15.288527,-2.690259 Q -15.288527,-3.115276 -15.465618,-3.322418 Q -15.642708,-3.529561 -15.896001,-3.529561 Q -16.147148,-3.529561 -16.331751,-3.312759 Q -16.516355,-3.095957 -16.516355,-2.658061" />
      <path d="M -13.116217,2.248069 A 2.198069129234056,2.198069129234056 0.0 0,1 -17.512355,2.248069 A 2.198069129234056,2.198069129234056 0.0 0,1 -13.116217,2.248069 M -14.213856,2.540412 L -14.052594,2.540412 A 0.2923431941881295,0.2923431941881295 180.0 0,0 -14.052594,1.955726 L -14.213856,1.955726 A 1.138599808943241,1.138599808943241 0.0 0,0 -14.21388,1.955637 A 0.33850264590204465,0.33850264590204465 -30.00000000000003 0,1 -14.510829,1.441306 A 1.138599808943241,1.138599808943241 0.0 0,0 -14.510894,1.441241 L -14.430263,1.301584 A 0.2923437136539796,0.2923437136539796 119.99999999999999 0,0 -14.936617,1.00924 L -15.017248,1.148898 A 1.138599808943241,1.138599808943241 0.0 0,0 -15.017336,1.148874 A 0.33850264590204465,0.33850264590204465 -90.00000000000001 0,1 -15.611235,1.148874 A 1.138599808943241,1.138599808943241 0.0 0,0 -15.611324,1.148898 L -15.691955,1.00924 A 0.2923432806415263,0.2923432806415263 59.99999999999997 0,0 -16.198308,1.301584 L -16.117677,1.441241 A 1.138599808943241,1.138599808943241 0.0 0,0 -16.117742,1.441306 A 0.33850264590204465,0.33850264590204465 -149.99999999999997 0,1 -16.414692,1.955637 A 1.138599808943241,1.138599808943241 0.0 0,0 -16.414715,1.955726 L -16.575977,1.955726 A 0.2923431941881295,0.2923431941881295 0.0 0,0 -16.575977,2.540412 L -16.414715,2.540412 A 1.138599808943241,1.138599808943241 0.0 0,0 -16.414692,2.540501 A 0.33850264590204465,0.33850264590204465 150.0 0,1 -16.117742,3.054833 A 1.138599808943241,1.138599808943241 0.0 0,0 -16.117677,3.054897 L -16.198308,3.194555 A 0.2923431941881295,0.2923431941881295 -60.00000000000001 0,0 -15.691955,3.486898 L -15.611324,3.347241 A 1.138599808943241,1.138599808943241 0.0 0,0 -15.611235,3.347265 A 0.33850264590204465,0.33850264590204465 90.0 0,1 -15.017336,3.347265 A 1.138599808943241,1.138599808943241 0.0 0,0 -15.017248,3.347241 L -14.936617,3.486898 A 0.2923434636540554,0.2923434636540554 -120.00000000000001 0,0 -14.430263,3.194555 L -14.510894,3.054897 A 1.138599808943241,1.138599808943241 0.0 0,0 -14.510829,3.054833 A 0.33850264590204465,0.33850264590204465 29.999999999999996 0,1 -14.21388,2.540501 A 1.138599808943241,1.138599808943241 0.0 0,0 -14.213856,2.540412" />
      <path d="M -7.4193,-0.346075 L -6.74424,-0.346075 L -6.74424,-0.125124 L -7.4193,-0.125124 L -7.4193,-0.346075" />
      <path d="M -5.407548,-0.672008 L -6.285248,-0.672008 Q -6.248627,-0.612193 -6.192473,-0.552988 Q -6.13632,-0.493783 -5.938563,-0.327764 C -5.780683,-0.194298 -5.667766,-0.089316 -5.599812,-0.012818 C -5.531859,0.063681 -5.483233,0.136518 -5.453936,0.205692 C -5.424638,0.274866 -5.40999,0.345261 -5.40999,0.416877 C -5.40999,0.557667 -5.460039,0.67567 -5.560139,0.770887 C -5.660238,0.866103 -5.796145,0.913711 -5.96786,0.913711 C -6.305492,0.914983 -6.520543,0.731773 -6.548925,0.396125 L -6.323091,0.372931 Q -6.32187,0.541391 -6.226654,0.636607 Q -6.131437,0.731824 -5.972743,0.731824 Q -5.822594,0.731824 -5.729209,0.6421 Q -5.635824,0.552377 -5.635824,0.42176 Q -5.635824,0.297246 -5.738364,0.157473 Q -5.840905,0.0177 -6.132658,-0.221561 Q -6.320649,-0.375372 -6.420138,-0.492562 Q -6.519627,-0.609751 -6.564794,-0.730603 Q -6.592871,-0.803846 -6.590429,-0.883193 L -5.407548,-0.883193 L -5.407548,-0.672008" />
      <path d="M -4.994944,-0.728161 C -4.896472,-0.851861 -4.760972,-0.913711 -4.588443,-0.913711 C -4.326013,-0.915555 -4.156281,-0.765177 -4.069636,-0.509042 C -4.026503,-0.380052 -4.004937,-0.210575 -4.004937,-0.00061 C -4.004937,0.176801 -4.018365,0.317795 -4.045221,0.42237 C -4.099696,0.631139 -4.190131,0.778796 -4.335753,0.855727 C -4.408183,0.894383 -4.492413,0.913711 -4.588443,0.913711 C -4.718653,0.913711 -4.826687,0.878717 -4.912545,0.808729 C -4.998403,0.738741 -5.063101,0.639252 -5.10664,0.510262 C -5.150179,0.381273 -5.171949,0.210982 -5.171949,-0.00061 C -5.171949,-0.336716 -5.112947,-0.579233 -4.994944,-0.728161 M -4.832588,0.603648 Q -4.742254,0.731824 -4.590884,0.731824 Q -4.437073,0.731824 -4.333922,0.586558 Q -4.230771,0.441292 -4.230771,-0.00061 Q -4.230771,-0.440071 -4.333922,-0.586558 Q -4.437073,-0.733044 -4.588443,-0.733044 Q -4.739813,-0.733044 -4.842964,-0.587168 Q -4.946115,-0.441292 -4.946115,-0.00061 Q -4.946115,0.440071 -4.832588,0.603648" />
      <path d="M -10.909349,-0.883193 L -10.672528,-0.883193 L -10.672528,-0.039674 L -9.742337,-0.039674 L -9.742337,-0.883193 L -9.505517,-0.883193 L -9.505517,0.906387 L -9.742337,0.906387 L -9.742337,0.171512 L -10.672528,0.171512 L -10.672528,0.906387 L -10.909349,0.906387 L -10.909349,-0.883193" />
      <path d="M -9.111223,-0.883193 L -8.46546,-0.883193 C -8.249189,-0.882583 -8.082153,-0.842503 -7.964353,-0.762952 C -7.847685,-0.682931 -7.741457,-0.551017 -7.679315,-0.339971 C -7.647576,-0.234989 -7.631706,-0.114545 -7.631706,0.021363 C -7.631706,0.180871 -7.655104,0.322678 -7.701898,0.446785 C -7.748692,0.570892 -7.819291,0.672822 -7.913693,0.752576 Q -8.022338,0.845351 -8.176149,0.880752 Q -8.286014,0.906387 -8.494758,0.906387 L -9.111223,0.906387 L -9.111223,-0.883193 M -8.874403,-0.672008 L -8.874403,0.695202 L -8.49842,0.695202 Q -8.287235,0.695202 -8.192018,0.65858 C -8.104126,0.6244 -8.029459,0.557057 -7.968016,0.456551 C -7.906573,0.356044 -7.875851,0.212202 -7.875851,0.025025 C -7.874834,-0.245416 -7.942787,-0.433713 -8.054077,-0.546274 C -8.093954,-0.586151 -8.147462,-0.617076 -8.214602,-0.639049 C -8.281742,-0.661022 -8.374313,-0.672008 -8.492316,-0.672008 L -8.874403,-0.672008" />
      <path d="M 0.355323,3.636199 L 0.355323,0.05 L 1.949189,1.046166 L 16.355323,1.046166 L 16.355323,2.640032 L 1.949189,2.640032 L 0.355323,3.636199" />
      <path d="M 14.946364,-2.877984 L 14.946364,-0.300404 L 14.74324,-0.300404 Q 14.660939,-0.466756 14.463068,-0.643614 Q 14.265197,-0.820472 14.000785,-0.944799 L 14.000785,-1.249485 Q 14.147875,-1.195202 14.332613,-1.086636 Q 14.517351,-0.978069 14.631171,-0.869502 L 14.631171,-2.877984 L 14.946364,-2.877984" />
      <path d="M 17.07567,-0.96406 L 17.389112,-0.939545 Q 17.350589,-0.640112 17.157095,-0.470258 Q 16.963601,-0.300404 16.660666,-0.300404 Q 16.254416,-0.300404 16.014519,-0.594584 Q 15.739601,-0.932541 15.739601,-1.676747 Q 15.739601,-2.342155 15.988253,-2.631958 Q 16.236906,-2.921761 16.630897,-2.921761 Q 16.862039,-2.921761 17.044151,-2.811443 Q 17.226262,-2.701125 17.330451,-2.493623 Q 17.43464,-2.286121 17.43464,-2.044473 Q 17.43464,-1.676747 17.213129,-1.44473 Q 16.991618,-1.212713 16.676425,-1.212713 Q 16.496065,-1.212713 16.331464,-1.296764 Q 16.166863,-1.380816 16.053043,-1.554172 Q 16.056545,-1.168936 16.142348,-0.960558 Q 16.22815,-0.752181 16.376992,-0.643614 Q 16.490811,-0.559562 16.641404,-0.559562 Q 16.828769,-0.559562 16.956597,-0.694395 Q 17.033644,-0.778447 17.07567,-0.96406 M 16.102073,-2.046224 Q 16.102073,-1.797571 16.250914,-1.644353 Q 16.399756,-1.491134 16.613387,-1.491134 Q 16.828769,-1.491134 16.970606,-1.644353 Q 17.112443,-1.797571 17.112443,-2.063735 Q 17.112443,-2.340404 16.968854,-2.501503 Q 16.825266,-2.662602 16.625644,-2.662602 Q 16.48906,-2.662602 16.364734,-2.584679 Q 16.240408,-2.506756 16.17124,-2.357915 Q 16.102073,-2.209074 16.102073,-2.046224" />
      <path d="M 0.270616,-2.877984 L 0.61908,-2.877984 L 1.624196,-0.31091 L 1.277484,-0.31091 L 0.584059,-2.175803 Q 0.50526,-2.385932 0.445724,-2.596061 Q 0.39144,-2.399941 0.310891,-2.175803 L -0.356268,-0.31091 L -0.723993,-0.31091 L 0.270616,-2.877984" />
      <path d="M 1.724007,-2.877984 L 3.753502,-2.877984 L 3.753502,-2.575048 L 2.114497,-2.575048 L 2.270342,-2.394688 L 3.711476,-0.613846 L 3.711476,-0.31091 L 1.872849,-0.31091 L 1.872849,-0.613846 L 3.305227,-0.613846 Q 3.17915,-0.743425 3.039064,-0.918533 L 1.724007,-2.562791 L 1.724007,-2.877984" />
      <path d="M 5.304953,-2.158293 L 4.98976,-2.200318 Q 5.021279,-2.520765 5.244541,-2.722138 Q 5.467803,-2.923512 5.80576,-2.923512 Q 6.18049,-2.923512 6.42564,-2.689743 Q 6.67079,-2.455975 6.67079,-2.119769 Q 6.67079,-1.871117 6.544713,-1.70564 Q 6.418636,-1.540164 6.190996,-1.487631 C 6.424108,-1.382969 6.545078,-1.186629 6.544713,-0.967563 C 6.544713,-0.850824 6.513486,-0.740507 6.451031,-0.63661 C 6.388576,-0.532713 6.298395,-0.450704 6.18049,-0.390584 C 6.062584,-0.330464 5.933588,-0.300404 5.793503,-0.300404 C 5.590378,-0.300404 5.420524,-0.358481 5.28394,-0.474635 C 5.147356,-0.59079 5.059803,-0.754515 5.021279,-0.965812 L 5.336472,-1.021846 C 5.380431,-0.713657 5.558093,-0.559562 5.800507,-0.559562 C 5.924249,-0.559562 6.025228,-0.597502 6.103443,-0.673382 C 6.181657,-0.749262 6.220765,-0.844987 6.220765,-0.960558 C 6.220765,-1.106481 6.167065,-1.214464 6.059666,-1.284507 C 5.952267,-1.35455 5.831443,-1.389571 5.697194,-1.389571 C 5.684352,-1.389571 5.667425,-1.388404 5.646412,-1.386069 L 5.611391,-1.662739 Q 5.744473,-1.627717 5.833777,-1.627717 Q 6.052661,-1.627717 6.194498,-1.768679 Q 6.336335,-1.90964 6.336335,-2.126773 Q 6.336335,-2.354413 6.183116,-2.508507 Q 6.029898,-2.662602 5.807511,-2.662602 Q 5.620146,-2.662602 5.489691,-2.544404 Q 5.359236,-2.426207 5.304953,-2.158293" />
      <path d="M 7.152336,-2.877984 L 7.330945,-2.877984 Q 7.325692,-3.037332 7.278413,-3.122259 Q 7.231134,-3.207186 7.131323,-3.250963 L 7.218877,-3.385795 C 7.423278,-3.294885 7.510029,-3.144001 7.511306,-2.877984 L 7.511306,-2.519014 L 7.152336,-2.519014 L 7.152336,-2.877984" />
    </g>
  </g>
</svg>