<?xml version='1.0' encoding='utf-8'?>
<svg width="98.85161mm" height="29.280752mm" viewBox="-15.964535 -5.064535 31.92907 9.457683" version="1.1" xmlns="http://www.w3.org/2000/svg">
  <g transform="scale(1,-1)" stroke-linecap="round">
    <g fill="rgb(0,0,0)" stroke="rgb(0,0,0)" stroke-width="0.0" id="Shapes">
      <path d="M -7.408447,-4.315137 L -6.951904,-4.315137 L -6.951904,-1.268262 L -5.916748,-4.315137 L -5.489502,-4.315137 L -4.449463,-1.319531 L -4.449463,-4.315137 L -3.99292,-4.315137 L -3.99292,-0.736035 L -4.630127,-0.736035 L -5.487061,-3.22627 Q -5.616455,-3.604687 -5.67749,-3.8 Q -5.731201,-3.624219 -5.848389,-3.270215 L -6.695557,-0.736035 L -7.408447,-0.736035 L -7.408447,-4.315137" />
      <path d="M -2.965088,-3.311719 L -3.404541,-3.370312 Q -3.360596,-3.81709 -3.049316,-4.097852 Q -2.738037,-4.378613 -2.266846,-4.378613 Q -1.744385,-4.378613 -1.402588,-4.052686 Q -1.060791,-3.726758 -1.060791,-3.258008 Q -1.060791,-2.911328 -1.236572,-2.680615 Q -1.412354,-2.449902 -1.729736,-2.37666 Q -1.485596,-2.264355 -1.361084,-2.073926 Q -1.236572,-1.883496 -1.236572,-1.651562 Q -1.236572,-1.407422 -1.367188,-1.190137 Q -1.497803,-0.972852 -1.744385,-0.847119 Q -1.990967,-0.721387 -2.283936,-0.721387 Q -2.70874,-0.721387 -2.994385,-0.964307 Q -3.280029,-1.207227 -3.360596,-1.649121 L -2.921143,-1.727246 Q -2.872314,-1.40498 -2.701416,-1.243848 Q -2.530518,-1.082715 -2.27417,-1.082715 Q -2.015381,-1.082715 -1.851807,-1.241406 Q -1.688232,-1.400098 -1.688232,-1.641797 Q -1.688232,-1.946973 -1.912842,-2.093457 Q -2.137451,-2.239941 -2.418213,-2.239941 Q -2.445068,-2.239941 -2.489014,-2.235059 L -2.537842,-2.620801 Q -2.352295,-2.571973 -2.227783,-2.571973 Q -1.922607,-2.571973 -1.724854,-2.768506 Q -1.5271,-2.965039 -1.5271,-3.267773 Q -1.5271,-3.585156 -1.740723,-3.8 Q -1.954346,-4.014844 -2.264404,-4.014844 Q -2.525635,-4.014844 -2.70752,-3.850049 Q -2.889404,-3.685254 -2.965088,-3.311719" />
      <path d="M -0.440674,-3.316602 L -0.145264,-3.612012 L 0.623779,-2.842969 L 1.390381,-3.60957 L 1.688232,-3.311719 L 0.921631,-2.545117 L 1.68335,-1.780957 L 1.390381,-1.485547 L 0.626221,-2.249707 L -0.140381,-1.483105 L -0.438232,-1.780957 L 0.328369,-2.547559 L -0.440674,-3.316602" />
      <path d="M 3.94458,1.438889 L 15.95,1.438889 L 15.95,3.661111 L 6.166802,3.661111 L 3.94458,1.438889" />
      <path d="M -10.95,2.55 A 2.5,2.5 0.0 0,1 -15.95,2.55 A 2.5,2.5 0.0 0,1 -10.95,2.55 M -12.198414,2.8825 L -12.015,2.8825 A 0.3325,0.3325 180.0 0,0 -12.015,2.2175 L -12.198414,2.2175 A 1.295,1.295 0.0 0,0 -12.19844,2.217399 A 0.385,0.385 -30.00000000000003 0,1 -12.536179,1.632418 A 1.295,1.295 0.0 0,0 -12.536253,1.632344 L -12.444547,1.473504 A 0.3325,0.3325 119.99999999999999 0,0 -13.020453,1.141004 L -13.11216,1.299844 A 1.295,1.295 0.0 0,0 -13.112261,1.299817 A 0.385,0.385 -90.00000000000001 0,1 -13.787739,1.299817 A 1.295,1.295 0.0 0,0 -13.78784,1.299844 L -13.879547,1.141004 A 0.3325,0.3325 59.99999999999997 0,0 -14.455453,1.473504 L -14.363747,1.632344 A 1.295,1.295 0.0 0,0 -14.363821,1.632418 A 0.385,0.385 -149.99999999999997 0,1 -14.70156,2.217399 A 1.295,1.295 0.0 0,0 -14.701586,2.2175 L -14.885,2.2175 A 0.3325,0.3325 0.0 0,0 -14.885,2.8825 L -14.701586,2.8825 A 1.295,1.295 0.0 0,0 -14.70156,2.882601 A 0.385,0.385 150.0 0,1 -14.363821,3.467582 A 1.295,1.295 0.0 0,0 -14.363747,3.467656 L -14.455453,3.626496 A 0.3325,0.3325 -60.00000000000001 0,0 -13.879547,3.958996 L -13.78784,3.800156 A 1.295,1.295 0.0 0,0 -13.787739,3.800183 A 0.385,0.385 90.0 0,1 -13.112261,3.800183 A 1.295,1.295 0.0 0,0 -13.11216,3.800156 L -13.020453,3.958996 A 0.3325,0.3325 -120.00000000000001 0,0 -12.444547,3.626496 L -12.536253,3.467656 A 1.295,1.295 0.0 0,0 -12.536179,3.467582 A 0.385,0.385 29.999999999999996 0,1 -12.19844,2.882601 A 1.295,1.295 0.0 0,0 -12.198414,2.8825" />
      <path d="M -9.56084,5.05 L -9.56084,0.05 L -7.338618,1.438889 L 2.44458,1.438889 L 4.666802,3.661111 L -7.338618,3.661111 L -9.56084,5.05" />
      <path d="M 2.755127,-3.338574 L 2.293701,-3.377637 Q 2.337646,-3.829297 2.646484,-4.102734 Q 2.955322,-4.376172 3.443604,-4.376172 Q 4.039307,-4.376172 4.383545,-3.941602 Q 4.666748,-3.587598 4.666748,-3.101758 Q 4.666748,-2.591504 4.344482,-2.266797 Q 4.022217,-1.94209 3.553467,-1.94209 Q 3.199463,-1.94209 2.877197,-2.166699 L 3.070068,-1.204785 L 4.498291,-1.204785 L 4.498291,-0.784863 L 2.718506,-0.784863 L 2.371826,-2.623242 L 2.784424,-2.676953 Q 2.88208,-2.523145 3.052979,-2.426709 Q 3.223877,-2.330273 3.436279,-2.330273 Q 3.778076,-2.330273 3.989258,-2.547559 Q 4.200439,-2.764844 4.200439,-3.14082 Q 4.200439,-3.536328 3.980713,-3.775586 Q 3.760986,-4.014844 3.443604,-4.014844 Q 3.179932,-4.014844 2.993164,-3.845166 Q 2.806396,-3.675488 2.755127,-3.338574" />
      <path d="M 5.428467,-4.005078 C 5.625407,-4.252474 5.896403,-4.376172 6.241455,-4.376172 C 6.503499,-4.376172 6.720378,-4.305778 6.89209,-4.16499 C 7.063802,-4.024202 7.19279,-3.824821 7.279053,-3.566846 C 7.365316,-3.30887 7.408447,-2.969922 7.408447,-2.55 C 7.408447,-2.195182 7.381592,-1.9132 7.327881,-1.704053 C 7.218933,-1.286521 7.038066,-0.991213 6.746826,-0.837354 C 6.601969,-0.760042 6.433512,-0.721387 6.241455,-0.721387 C 5.981038,-0.721387 5.764974,-0.791374 5.593262,-0.931348 C 5.421549,-1.071322 5.292155,-1.270296 5.205078,-1.528271 C 5.118001,-1.786247 5.074463,-2.126823 5.074463,-2.55 C 5.074463,-3.222201 5.192464,-3.707227 5.428467,-4.005078 M 5.753174,-1.341504 Q 5.933838,-1.085156 6.236572,-1.085156 Q 6.544189,-1.085156 6.750488,-1.375684 Q 6.956787,-1.666211 6.956787,-2.55 Q 6.956787,-3.428906 6.750488,-3.721875 Q 6.544189,-4.014844 6.241455,-4.014844 Q 5.938721,-4.014844 5.732422,-3.723096 Q 5.526123,-3.431348 5.526123,-2.55 Q 5.526123,-1.668652 5.753174,-1.341504" />
    </g>
  </g>
</svg>