<?xml version='1.0' encoding='utf-8'?>
<svg width="99.676875mm" height="28.60905mm" viewBox="-17.839002 -5.5162 35.883675 10.299258" version="1.1" xmlns="http://www.w3.org/2000/svg">
  <g transform="scale(1,-1)" stroke-linecap="round">
    <g fill="rgb(0,0,0)" stroke="rgb(0,0,0)" stroke-width="0.0" id="Shapes">
      <path d="M 16.486347,-3.750305 L 18.028473,-3.750305 L 18.028473,-3.520117 L 16.783063,-3.520117 L 16.901483,-3.383069 L 17.996539,-2.029883 L 17.996539,-1.799695 L 16.599445,-1.799695 L 16.599445,-2.029883 L 17.687848,-2.029883 Q 17.592047,-2.128345 17.485602,-2.261401 L 16.486347,-3.510803 L 16.486347,-3.750305" />
      <path d="M 15.381976,-3.750305 L 15.646759,-3.750305 L 16.410504,-1.799695 L 16.147052,-1.799695 L 15.620148,-3.216748 Q 15.560272,-3.376416 15.515033,-3.536084 Q 15.473786,-3.387061 15.412579,-3.216748 L 14.905634,-1.799695 L 14.626215,-1.799695 L 15.381976,-3.750305" />
      <path d="M -11.854219,-2.779599 L -10.69975,-2.779599 L -10.69975,-2.401735 L -11.854219,-2.401735 L -11.854219,-2.779599" />
      <path d="M -9.187249,2.187751 A 2.1377510000000006,2.1377510000000006 0.0 0,1 -13.462751,2.187751 A 2.1377510000000006,2.1377510000000006 0.0 0,1 -9.187249,2.187751 M -10.254768,2.472072 L -10.097931,2.472072 A 0.284321,0.284321 180.0 0,0 -10.097931,1.90343 L -10.254768,1.90343 A 1.1073549156498734,1.1073549156498734 0.0 0,0 -10.254791,1.903344 A 0.329213623571584,0.329213623571584 -30.00000000000003 0,1 -10.543592,1.403126 A 1.1073549156498734,1.1073549156498734 0.0 0,0 -10.543655,1.403063 L -10.465236,1.267238 A 0.2843212521611771,0.2843212521611771 119.99999999999999 0,0 -10.957695,0.982917 L -11.036113,1.118742 A 1.1073549156498734,1.1073549156498734 0.0 0,0 -11.036199,1.118719 A 0.329213623571584,0.329213623571584 -90.00000000000001 0,1 -11.613801,1.118719 A 1.1073549156498734,1.1073549156498734 0.0 0,0 -11.613887,1.118742 L -11.692305,0.982917 A 0.28432125216117776,0.28432125216117776 59.99999999999997 0,0 -12.184764,1.267238 L -12.106345,1.403063 A 1.1073549156498734,1.1073549156498734 0.0 0,0 -12.106408,1.403126 A 0.329213623571584,0.329213623571584 -149.99999999999997 0,1 -12.395209,1.903344 A 1.1073549156498734,1.1073549156498734 0.0 0,0 -12.395232,1.90343 L -12.552069,1.90343 A 0.284321,0.284321 0.0 0,0 -12.552069,2.472072 L -12.395232,2.472072 A 1.1073549156498734,1.1073549156498734 0.0 0,0 -12.395209,2.472158 A 0.329213623571584,0.329213623571584 150.0 0,1 -12.106408,2.972375 A 1.1073549156498734,1.1073549156498734 0.0 0,0 -12.106345,2.972438 L -12.184764,3.108263 A 0.2843212521611777,0.2843212521611777 -60.00000000000001 0,0 -11.692305,3.392584 L -11.613887,3.256759 A 1.1073549156498734,1.1073549156498734 0.0 0,0 -11.613801,3.256783 A 0.329213623571584,0.329213623571584 90.0 0,1 -11.036199,3.256783 A 1.1073549156498734,1.1073549156498734 0.0 0,0 -11.036113,3.256759 L -10.957695,3.392584 A 0.284321252161177,0.284321252161177 -120.00000000000001 0,0 -10.465236,3.108263 L -10.543655,2.972438 A 1.1073549156498734,1.1073549156498734 0.0 0,0 -10.543592,2.972375 A 0.329213623571584,0.329213623571584 29.999999999999996 0,1 -10.254791,2.472158 A 1.1073549156498734,1.1073549156498734 0.0 0,0 -10.254768,2.472072" />
      <path d="M -8.413776,-3.337001 L -9.914794,-3.337001 Q -9.852165,-3.234706 -9.756133,-3.133455 Q -9.660101,-3.032204 -9.321902,-2.748284 Q -8.916899,-2.40591 -8.74258,-2.209671 Q -8.568262,-2.013432 -8.493107,-1.835982 Q -8.417951,-1.658532 -8.417951,-1.474819 Q -8.417951,-1.113656 -8.674732,-0.869402 Q -8.931512,-0.625147 -9.372006,-0.625147 Q -9.808324,-0.625147 -10.067193,-0.851657 Q -10.326061,-1.078166 -10.365726,-1.510309 L -9.979511,-1.549975 Q -9.977424,-1.261879 -9.814587,-1.099043 Q -9.651751,-0.936206 -9.380357,-0.936206 Q -9.123576,-0.936206 -8.963871,-1.089648 Q -8.804166,-1.24309 -8.804166,-1.466469 Q -8.804166,-1.679409 -8.979528,-1.918444 Q -9.154891,-2.15748 -9.653838,-2.566659 Q -9.975336,-2.829702 -10.145479,-3.030116 Q -10.315623,-3.230531 -10.392866,-3.437208 Q -10.440881,-3.562467 -10.436706,-3.698164 L -8.413776,-3.698164 L -8.413776,-3.337001" />
      <path d="M -7.708151,-3.433032 C -7.539748,-3.644581 -7.308019,-3.750355 -7.012965,-3.750355 C -6.564164,-3.753508 -6.273894,-3.496336 -6.125715,-3.0583 C -6.051951,-2.837705 -6.015069,-2.54787 -6.015069,-2.188795 C -6.015069,-1.88539 -6.038033,-1.644267 -6.083962,-1.465425 C -6.177123,-1.108394 -6.331783,-0.855875 -6.580822,-0.72431 C -6.704689,-0.658201 -6.848736,-0.625147 -7.012965,-0.625147 C -7.235647,-0.625147 -7.420404,-0.684993 -7.567235,-0.804684 C -7.714066,-0.924376 -7.824711,-1.09452 -7.899171,-1.315114 C -7.97363,-1.535709 -8.01086,-1.826936 -8.01086,-2.188795 C -8.01086,-2.763594 -7.909957,-3.178339 -7.708151,-3.433032 M -7.430494,-1.155409 Q -7.276008,-0.936206 -7.01714,-0.936206 Q -6.754096,-0.936206 -6.57769,-1.184636 Q -6.401284,-1.433066 -6.401284,-2.188795 Q -6.401284,-2.940348 -6.57769,-3.190865 Q -6.754096,-3.441383 -7.012965,-3.441383 Q -7.271833,-3.441383 -7.448239,-3.191909 Q -7.624645,-2.942435 -7.624645,-2.188795 Q -7.624645,-1.435154 -7.430494,-1.155409" />
      <path d="M -17.822802,-3.698164 L -17.417799,-3.698164 L -17.417799,-2.255599 L -15.827011,-2.255599 L -15.827011,-3.698164 L -15.422008,-3.698164 L -15.422008,-0.637673 L -15.827011,-0.637673 L -15.827011,-1.894436 L -17.417799,-1.894436 L -17.417799,-0.637673 L -17.822802,-0.637673 L -17.822802,-3.698164" />
      <path d="M -14.747698,-3.698164 L -13.643332,-3.698164 C -13.273471,-3.69712 -12.987811,-3.628575 -12.786353,-3.49253 C -12.586831,-3.355681 -12.405162,-3.130084 -12.298888,-2.769161 C -12.244609,-2.589623 -12.217469,-2.383642 -12.217469,-2.151217 C -12.217469,-1.878431 -12.257482,-1.635916 -12.337509,-1.423672 C -12.417535,-1.211428 -12.538271,-1.037109 -12.699716,-0.900716 Q -12.885516,-0.742055 -13.14856,-0.681513 Q -13.336448,-0.637673 -13.693436,-0.637673 L -14.747698,-0.637673 L -14.747698,-3.698164 M -14.342694,-3.337001 L -14.342694,-0.998836 L -13.699699,-0.998836 Q -13.338536,-0.998836 -13.175699,-1.061465 C -13.025389,-1.119919 -12.897694,-1.235088 -12.792616,-1.406971 C -12.687538,-1.578854 -12.634999,-1.824848 -12.634999,-2.144954 C -12.633259,-2.607455 -12.749471,-2.929474 -12.939795,-3.121973 C -13.007992,-3.190169 -13.0995,-3.243056 -13.214321,-3.280634 C -13.329141,-3.318212 -13.487455,-3.337001 -13.689261,-3.337001 L -14.342694,-3.337001" />
      <path d="M -2.735815,5.5 L -2.735815,0.05 L -0.313593,1.563889 L 6.882092,1.563889 L 9.304315,3.986111 L -0.313593,3.986111 L -2.735815,5.5" />
      <path d="M 8.382092,1.563889 L 18.0,1.563889 L 18.0,3.986111 L 10.804315,3.986111 L 8.382092,1.563889" />
      <path d="M 7.56889,-1.310046 L 9.479584,-1.310046 Q 9.115008,-1.725183 8.791681,-2.330591 Q 8.468353,-2.935999 8.29538,-3.587976 Q 8.122406,-4.239954 8.114423,-4.70033 L 8.606732,-4.70033 Q 8.646649,-4.117542 8.79035,-3.627893 Q 8.989935,-2.933337 9.355841,-2.276038 Q 9.721747,-1.618738 10.094305,-1.222229 L 10.094305,-0.84967 L 7.56889,-0.84967 L 7.56889,-1.310046" />
      <path d="M 10.953851,-4.362366 C 11.168516,-4.632027 11.463902,-4.766858 11.840008,-4.766858 C 12.125637,-4.766858 12.362034,-4.690129 12.5492,-4.53667 C 12.736367,-4.383211 12.876963,-4.165885 12.97099,-3.884692 C 13.065017,-3.603499 13.11203,-3.234045 13.11203,-2.776331 C 13.11203,-2.389579 13.082757,-2.082218 13.024213,-1.854248 C 12.905459,-1.399139 12.708314,-1.077253 12.390863,-0.909546 C 12.232969,-0.825277 12.049351,-0.783142 11.840008,-0.783142 C 11.556154,-0.783142 11.320644,-0.859428 11.133478,-1.012 C 10.946311,-1.164571 10.805271,-1.381453 10.710358,-1.662646 C 10.615444,-1.94384 10.567987,-2.315068 10.567987,-2.776331 C 10.567987,-3.509029 10.696608,-4.037708 10.953851,-4.362366 M 11.307782,-1.45907 Q 11.504706,-1.179651 11.834686,-1.179651 Q 12.169989,-1.179651 12.394855,-1.496326 Q 12.61972,-1.813 12.61972,-2.776331 Q 12.61972,-3.734338 12.394855,-4.053674 Q 12.169989,-4.37301 11.840008,-4.37301 Q 11.510028,-4.37301 11.285162,-4.055005 Q 11.060297,-3.737 11.060297,-2.776331 Q 11.060297,-1.815662 11.307782,-1.45907" />
      <path d="M -2.261334,-3.635876 L -2.764288,-3.678455 Q -2.716388,-4.170764 -2.379755,-4.468811 Q -2.043121,-4.766858 -1.510895,-4.766858 Q -0.861578,-4.766858 -0.486359,-4.293176 Q -0.177667,-3.907312 -0.177667,-3.377747 Q -0.177667,-2.82157 -0.528937,-2.467639 Q -0.880206,-2.113708 -1.391144,-2.113708 Q -1.777008,-2.113708 -2.128278,-2.358533 L -1.918048,-1.310046 L -0.361286,-1.310046 L -0.361286,-0.852332 L -2.301251,-0.852332 L -2.679132,-2.856165 L -2.229401,-2.914709 Q -2.122955,-2.747058 -1.936676,-2.641943 Q -1.750397,-2.536829 -1.518878,-2.536829 Q -1.14632,-2.536829 -0.916132,-2.773669 Q -0.685944,-3.01051 -0.685944,-3.420325 Q -0.685944,-3.851428 -0.925446,-4.112219 Q -1.164948,-4.37301 -1.510895,-4.37301 Q -1.798297,-4.37301 -2.001874,-4.188062 Q -2.205451,-4.003113 -2.261334,-3.635876" />
      <path d="M 0.535516,-4.70033 L 1.081048,-4.70033 L 1.081048,-4.154797 L 0.535516,-4.154797 L 0.535516,-4.70033" />
      <path d="M 2.166791,-4.362366 C 2.381455,-4.632027 2.676841,-4.766858 3.052948,-4.766858 C 3.338576,-4.766858 3.574973,-4.690129 3.76214,-4.53667 C 3.949306,-4.383211 4.089903,-4.165885 4.183929,-3.884692 C 4.277956,-3.603499 4.324969,-3.234045 4.324969,-2.776331 C 4.324969,-2.389579 4.295697,-2.082218 4.237152,-1.854248 C 4.118399,-1.399139 3.921253,-1.077253 3.603802,-0.909546 C 3.445909,-0.825277 3.26229,-0.783142 3.052948,-0.783142 C 2.769094,-0.783142 2.533583,-0.859428 2.346417,-1.012 C 2.159251,-1.164571 2.018211,-1.381453 1.923297,-1.662646 C 1.828383,-1.94384 1.780926,-2.315068 1.780926,-2.776331 C 1.780926,-3.509029 1.909548,-4.037708 2.166791,-4.362366 M 2.520721,-1.45907 Q 2.717645,-1.179651 3.047626,-1.179651 Q 3.382928,-1.179651 3.607794,-1.496326 Q 3.83266,-1.813 3.83266,-2.776331 Q 3.83266,-3.734338 3.607794,-4.053674 Q 3.382928,-4.37301 3.052948,-4.37301 Q 2.722967,-4.37301 2.498102,-4.055005 Q 2.273236,-3.737 2.273236,-2.776331 Q 2.273236,-1.815662 2.520721,-1.45907" />
      <path d="M 4.625677,-4.70033 L 5.205804,-4.70033 L 5.94826,-3.585315 L 6.102606,-3.822156 L 6.682733,-4.70033 L 7.270843,-4.70033 L 6.219696,-3.204773 L 7.196332,-1.874207 L 6.624188,-1.874207 L 6.147845,-2.542151 Q 6.049383,-2.677869 5.932294,-2.853503 Q 5.857782,-2.725769 5.73537,-2.536829 L 5.301605,-1.874207 L 4.70285,-1.874207 L 5.658197,-3.231384 L 4.625677,-4.70033" />
    </g>
  </g>
</svg>